<svg width="305" height="92" viewBox="0 0 305 92" fill="none" xmlns="http://www.w3.org/2000/svg">
<path d="M41.4601 0.109888C43.0036 0.385203 44.5221 0.786546 46.0001 1.30989C48.6629 2.02721 51.1112 3.38157 53.1339 5.25614C55.1565 7.1307 56.6927 9.46919 57.6101 12.0699C57.8185 12.7151 57.91 13.3925 57.8801 14.0699C57.8801 30.6366 57.8801 47.2032 57.8801 63.7699C57.8801 66.5599 56.3201 68.6799 54.7901 71.0299C53.3101 68.3599 51.9101 65.8299 50.5201 63.2999C50.4694 63.1869 50.4127 63.0767 50.3501 62.9699C48.2201 60.1699 47.9101 56.9699 47.9301 53.5699C48.0001 42.1899 47.9301 30.8099 47.9301 19.4399C47.9335 17.867 47.8567 16.295 47.7001 14.7299C47.5987 13.9177 47.2995 13.1429 46.8287 12.4733C46.358 11.8038 45.73 11.2601 45.0001 10.8899C42.7048 9.47499 40.0614 8.72574 37.3651 8.72574C34.6687 8.72574 32.0254 9.47499 29.7301 10.8899C26.5801 12.7199 25.0701 15.8099 24.8001 19.3999C24.4326 23.2754 25.3194 27.1664 27.3301 30.4999C36.7401 46.1999 45.4901 62.2899 54.3301 78.3299C55.6601 80.7299 56.9801 83.1299 58.3301 85.5099C58.7301 86.1999 58.8001 86.5099 57.8301 86.5099C54.6201 86.5099 51.4201 86.5099 48.2101 86.5099C47.9229 86.528 47.6376 86.4531 47.3962 86.2964C47.1549 86.1397 46.9704 85.9095 46.8701 85.6399C43.8167 80.0332 40.7534 74.4266 37.6801 68.8199C31.8601 58.2199 26.1801 47.5399 19.8501 37.2299C17.8501 34.0499 16.0201 30.7499 15.2801 27.0599C14.5565 23.8242 14.5784 20.4664 15.3442 17.2405C16.11 14.0146 17.5995 11.0051 19.7001 8.43989C23.3701 3.80989 28.3701 1.85989 34.0601 0.439888C34.4301 0.339888 34.5301 0.319888 35.0601 0.219888C37.1863 -0.000590906 39.3275 -0.0373938 41.4601 0.109888Z" fill="#13A2C5"/>
<path d="M153.9 65.55V55.55C153.9 53.34 153.37 51.33 151.15 50.4C149.964 49.8165 148.642 49.5634 147.324 49.6673C146.006 49.7711 144.74 50.228 143.66 50.99C142.09 52.13 141.95 53.99 141.95 55.72C141.95 62.41 141.95 69.09 141.95 75.78C141.95 76.95 141.69 77.36 140.45 77.3C138.33 77.2 136.21 77.3 134.09 77.3C133.32 77.3 133.09 77.08 133.09 76.3C133.09 69.3 133.09 62.3 133.09 55.38C133.114 53.4653 133.487 51.571 134.19 49.79C134.904 47.839 136.146 46.1249 137.777 44.8392C139.409 43.5536 141.366 42.7471 143.43 42.51C148.43 41.7 153.43 41.72 157.86 44.69C158.33 45 158.62 44.79 158.97 44.57C162.69 42.27 166.79 41.97 170.97 42.31C173.644 42.4268 176.233 43.2817 178.45 44.78C181.59 47.04 182.91 50.29 183.24 53.98C183.72 59.49 183.35 64.98 183.44 70.53C183.44 72.53 183.44 74.44 183.44 76.39C183.44 77.16 183.19 77.39 182.44 77.39C181.27 77.39 180.11 77.39 178.94 77.39C176 77.31 174.51 75.81 174.5 72.87C174.5 67.1433 174.5 61.4133 174.5 55.68C174.5 53.42 173.93 51.38 171.62 50.51C169.06 49.51 166.43 49.51 164.15 51.26C162.65 52.44 162.56 54.26 162.56 56.05C162.56 62.65 162.56 69.25 162.56 75.85C162.56 77.08 162.2 77.4 161.02 77.34C158.95 77.24 156.86 77.28 154.78 77.34C153.95 77.34 153.72 77.08 153.73 76.27C153.92 72.69 153.9 69.12 153.9 65.55Z" fill="#13A2C5"/>
<path d="M295.25 73.17C293.106 75.6992 290.109 77.3538 286.826 77.8201C283.543 78.2864 280.204 77.5321 277.44 75.7C275.115 74.039 273.459 71.6029 272.77 68.83C271.254 63.6746 271.157 58.2057 272.49 53C274.05 47.09 278.39 43.48 284.49 42.76C287.83 42.3008 291.229 42.5047 294.49 43.36C300.01 44.91 302.87 48.72 303.75 54.22C303.955 55.6572 304.045 57.1085 304.02 58.56C304.02 65.46 304.02 72.35 304.02 79.24C303.97 84.81 301.11 88.66 295.84 90.51C294.463 90.9832 293.043 91.3182 291.6 91.51C288.43 92.0441 285.184 91.9078 282.07 91.11C277.15 89.7 274.27 86.28 272.76 81.55C272.61 81.09 272.65 80.84 273.21 80.85C276 80.85 278.79 80.85 281.58 80.85C281.743 80.8229 281.911 80.8554 282.053 80.9417C282.194 81.028 282.3 81.1623 282.35 81.32C282.659 82.1511 283.2 82.8759 283.909 83.4079C284.618 83.9398 285.466 84.2565 286.35 84.32C287.626 84.5549 288.934 84.5549 290.21 84.32C293.21 83.75 294.94 81.77 295.26 78.49C295.39 76.75 295.25 75.05 295.25 73.17ZM295.31 59.77C295.387 58.0836 295.194 56.3959 294.74 54.77C294.402 53.316 293.578 52.0212 292.402 51.1008C291.227 50.1803 289.773 49.6896 288.28 49.71C286.814 49.5551 285.339 49.9155 284.109 50.7293C282.879 51.5431 281.971 52.7596 281.54 54.17C280.154 58.0353 280.207 62.2708 281.69 66.1C282.131 67.3949 282.988 68.5074 284.128 69.2636C285.268 70.0198 286.626 70.3772 287.99 70.28C289.351 70.3104 290.688 69.9153 291.813 69.1499C292.939 68.3844 293.798 67.2868 294.27 66.01C295.044 64.0241 295.398 61.8995 295.31 59.77Z" fill="#13A2C5"/>
<path d="M197.33 47.22C198.09 46.37 198.66 45.68 199.28 45.04C203.87 40.26 215.91 40.93 219.28 50.04C221.52 55.9092 221.7 62.3652 219.79 68.35C218.28 73.19 214.84 76.09 209.9 77.23C205.919 78.1833 201.757 78.0764 197.83 76.92C192.44 75.31 189.7 71.49 188.83 66.12C188.611 64.5165 188.52 62.8979 188.56 61.28C188.56 52.19 188.56 43.1 188.56 34.01C188.56 33.01 188.78 32.67 189.79 32.76C190.8 32.85 191.79 32.76 192.79 32.76C195.94 32.76 197.33 34.17 197.34 37.35C197.34 40.17 197.34 42.99 197.34 45.82L197.33 47.22ZM197.33 60.76C197.317 61.8163 197.408 62.8713 197.6 63.91C198.17 67.63 200.4 70.06 203.5 70.36C207.41 70.74 210.14 69.13 211.27 65.62C212.44 62.0466 212.44 58.1934 211.27 54.62C210.915 53.2322 210.093 52.0092 208.942 51.1568C207.791 50.3043 206.381 49.8746 204.95 49.94C203.485 49.8031 202.018 50.1817 200.802 51.0105C199.587 51.8393 198.698 53.0663 198.29 54.48C197.578 56.4944 197.253 58.6249 197.33 60.76Z" fill="#13A2C5"/>
<path d="M91.87 47.2799C96.87 39.6899 107.78 41.6099 111.6 46.2799C113.404 48.5254 114.578 51.2107 115 54.0599C115.839 58.3872 115.741 62.8442 114.71 67.1299C113.1 73.2099 108.76 76.8799 102.5 77.5899C99.1148 78.064 95.6678 77.8255 92.38 76.8899C87.16 75.3199 84.38 71.6799 83.44 66.4599C83.2072 65.0254 83.1035 63.5729 83.13 62.1199C83.13 52.7799 83.13 43.4399 83.13 34.1199C83.13 33.0399 83.38 32.6299 84.5 32.7499C85.44 32.8499 86.41 32.7499 87.37 32.7499C90.37 32.7499 91.87 34.1899 91.89 37.2599C91.89 40.0799 91.89 42.8999 91.89 45.7199L91.87 47.2799ZM91.87 60.5699C91.7798 62.4753 92.0722 64.3794 92.73 66.1699C93.1561 67.4429 93.9843 68.5428 95.09 69.304C96.1957 70.0652 97.5189 70.4463 98.86 70.3899C102.14 70.3899 104.43 69.1199 105.49 66.3899C107.049 62.407 107.049 57.9829 105.49 53.9999C104.43 51.2299 102.26 49.9999 99.11 49.9999C97.7697 49.9369 96.4447 50.3063 95.3302 51.0534C94.2157 51.8006 93.3708 52.8861 92.92 54.1499C92.1437 56.1978 91.79 58.3817 91.88 60.5699H91.87Z" fill="#13A2C5"/>
<path d="M247.5 65.3699C247.5 68.9799 247.5 72.5899 247.5 76.2099C247.5 77.0699 247.27 77.3599 246.38 77.3299C244.14 77.3299 241.89 77.3299 239.64 77.3299C238.87 77.3299 238.54 77.1799 238.54 76.3299C238.54 69.4799 238.54 62.6199 238.59 55.7699C238.612 54.026 238.902 52.2957 239.45 50.6399C240.02 48.6692 241.118 46.8916 242.625 45.4993C244.132 44.107 245.99 43.1529 248 42.7399C251.369 41.9206 254.879 41.8693 258.27 42.5899C264.02 43.7399 267.56 47.8599 268 53.8399C268.47 60.3899 268.11 66.9499 268.18 73.5099C268.18 74.7399 268.73 76.3499 267.92 77.0899C267.11 77.8299 265.54 77.2599 264.3 77.3099C263.925 77.3217 263.55 77.2982 263.18 77.2399C260.47 76.8099 259.34 75.5399 259.33 72.7799C259.33 67.1699 259.33 61.5699 259.33 55.9599C259.357 55.213 259.304 54.4654 259.17 53.7299C258.58 51.0599 256.41 49.6299 253.17 49.7299C249.17 49.8799 247.46 51.6099 247.45 55.6299C247.483 58.8833 247.5 62.1299 247.5 65.3699Z" fill="#13A2C5"/>
<path d="M38.7301 77.52C32.5701 77.46 26.6701 77.33 20.7301 77.24C18.3011 77.2266 15.8993 76.7268 13.6666 75.7702C11.4338 74.8135 9.41531 73.4194 7.73009 71.67C-2.07991 61.85 -3.13991 46.23 9.73009 36.58C10.5201 35.99 10.9601 35.93 11.5301 36.87C12.8901 39.1 14.3501 41.28 15.8301 43.43C16.3001 44.11 16.2001 44.43 15.5601 44.91C13.1483 46.4982 11.3249 48.8346 10.3701 51.56C8.00009 59 12.6801 64.37 17.8201 66.77C19.0205 67.1522 20.2865 67.2849 21.5401 67.16C25.0801 67.26 28.6101 67.34 32.1501 67.36C32.4967 67.3227 32.846 67.4004 33.1441 67.5811C33.4422 67.7618 33.6727 68.0354 33.8001 68.36C35.3601 71.33 37.0001 74.3 38.7301 77.52Z" fill="#0CA082"/>
<path d="M224.9 59.9998C224.9 54.6498 224.9 49.2998 224.9 43.9998C224.9 43.0598 225.09 42.6498 226.13 42.7198C227.49 42.8198 228.87 42.7198 230.24 42.7798C231.077 42.754 231.892 43.0512 232.515 43.6097C233.139 44.1682 233.524 44.9452 233.59 45.7798C233.679 46.3958 233.722 47.0175 233.72 47.6398C233.72 57.0498 233.72 66.4698 233.72 75.8798C233.72 76.9698 233.52 77.4398 232.3 77.3698C230.23 77.2698 228.14 77.2998 226.06 77.3698C225.14 77.3698 224.86 77.1298 224.86 76.1898C224.92 70.7698 224.9 65.3698 224.9 59.9998Z" fill="#13A2C5"/>
<path d="M119.43 59.92C119.43 54.56 119.43 49.2 119.43 43.85C119.43 42.93 119.66 42.59 120.61 42.66C121.73 42.74 122.86 42.66 123.98 42.66C126.98 42.66 128.16 43.89 128.18 46.82C128.18 50.18 128.18 53.54 128.18 56.91C128.18 63.26 128.18 69.61 128.18 75.96C128.18 77.1 127.85 77.36 126.77 77.32C124.77 77.23 122.69 77.25 120.66 77.32C119.66 77.32 119.38 77.12 119.39 76.1C119.46 70.71 119.43 65.31 119.43 59.92Z" fill="#13A2C5"/>
<path d="M69.4402 59.9998C69.4402 54.6098 69.4402 49.2098 69.4402 43.8098C69.4402 42.9098 69.6402 42.5498 70.6102 42.6198C71.8502 42.6998 73.1001 42.6198 74.3501 42.6198C76.8301 42.6898 78.1702 44.0298 78.1802 46.5398C78.1802 51.3898 78.1802 56.2498 78.1802 61.1098C78.1802 65.9698 78.1802 70.9798 78.1802 75.9198C78.1802 77.0698 77.8401 77.3098 76.7801 77.2698C74.7801 77.1898 72.7002 77.1998 70.6602 77.2698C69.6602 77.2698 69.3801 77.0598 69.3901 76.0498C69.4601 70.7498 69.4402 65.3998 69.4402 59.9998Z" fill="#13A2C5"/>
<path d="M229.22 39.5299C228.1 39.5299 226.98 39.5299 225.86 39.5299C225.21 39.5299 224.86 39.3999 224.86 38.6499C224.91 36.9499 224.86 35.2599 224.86 33.5599C224.86 32.8799 225.13 32.7199 225.75 32.7299C227.11 32.7299 228.48 32.7299 229.85 32.7299C232.13 32.7299 233.32 33.8899 233.61 36.1799C234.02 39.4899 234.02 39.4899 230.81 39.4899L229.22 39.5299Z" fill="#13A2C5"/>
<path d="M123.7 39.5298C122.58 39.5298 121.46 39.5298 120.34 39.5298C119.75 39.5298 119.4 39.4198 119.42 38.7198C119.42 36.9798 119.42 35.2398 119.42 33.4998C119.42 32.8898 119.67 32.7198 120.24 32.7398C121.69 32.7398 123.15 32.7398 124.6 32.7398C125.08 32.7281 125.557 32.8158 126.002 32.9975C126.447 33.1793 126.849 33.451 127.183 33.7958C127.518 34.1405 127.777 34.5507 127.945 35.0006C128.113 35.4505 128.186 35.9303 128.16 36.4098C128.28 39.4898 128.28 39.4898 125.16 39.4898L123.7 39.5298Z" fill="#13A2C5"/>
<path d="M73.7501 39.5299C72.6301 39.5299 71.5101 39.5299 70.3901 39.5299C69.7301 39.5299 69.3901 39.4099 69.3901 38.6499C69.3901 36.9499 69.3901 35.2499 69.3901 33.5499C69.3901 32.8699 69.6701 32.7199 70.2801 32.7399C71.6901 32.7399 73.1101 32.7399 74.5201 32.7399C75 32.7232 75.4783 32.8053 75.925 32.9813C76.3718 33.1573 76.7776 33.4234 77.1171 33.7629C77.4567 34.1025 77.7227 34.5082 77.8987 34.955C78.0747 35.4018 78.1569 35.88 78.1401 36.3599C78.2901 39.4899 78.2901 39.4899 75.2201 39.4899L73.7501 39.5299Z" fill="#13A2C5"/>
</svg>
